# xmcd
#
# Track frame offsets:
#  150
#  4055
#  23610
#  33682
#  48217
#  67860
#  81811
#  122897
#  154707
#  173231
#  189419
#  209771
#
# Disc length: 3270 seconds
#
# Revision: 0
# Processed by: cddbd v1.5.1PL0 Copyright (c) Steve Scherf et al.
# Submitted via: AltoMP3_Maker 3.0
#
DISCID=970cc40c
DTITLE=Nickel Creek - Live at the Abbey Pub
DYEAR=1900
DGENRE=
TTITLE0=Intro
TTITLE1=Big Sam Thompson
TTITLE2=Instrumental
TTITLE3=Beauty and the Mess
TTITLE4=Green and Grey
TTITLE5=Trouble
TTITLE6=The House of Tom Bombadil
TTITLE7=She Can't Complain
TTITLE8=Reasons Why
TTITLE9=This Side
TTITLE10=Itzinay
TTITLE11=House Carpenter
EXTD=
EXTT0=
EXTT1=
EXTT2=
EXTT3=
EXTT4=
EXTT5=
EXTT6=
EXTT7=
EXTT8=
EXTT9=
EXTT10=
EXTT11=
PLAYORDER=
